<svg width="17" height="12" viewBox="0 0 17 12" fill="none" xmlns="http://www.w3.org/2000/svg">
<mask id="path-1-inside-1_13136_14658" fill="white">
<path fill-rule="evenodd" clip-rule="evenodd" d="M-0.00146484 1.75549C-0.00146484 1.14193 0.495931 0.644531 1.1095 0.644531H10.8309C11.4445 0.644531 11.9419 1.14193 11.9419 1.75549V3.36941H14.6747C15.1097 3.36941 15.5046 3.62324 15.6853 4.01891L16.8982 6.6751C16.9643 6.81995 16.9985 6.97732 16.9985 7.13656V9.30946C16.9985 9.92303 16.5011 10.4204 15.8876 10.4204H11.3896V10.4196H1.1095C0.495932 10.4196 -0.00146484 9.92225 -0.00146484 9.30868V1.75549Z"/>
</mask>
<path d="M11.9419 3.36941H11.2419V4.06941H11.9419V3.36941ZM15.6853 4.01891L15.0485 4.30967L15.6853 4.01891ZM16.8982 6.6751L16.2614 6.96586L16.2614 6.96586L16.8982 6.6751ZM11.3896 10.4204H10.6896V11.1204H11.3896V10.4204ZM11.3896 10.4196H12.0896V9.71964H11.3896V10.4196ZM1.1095 -0.0554687C0.109331 -0.0554687 -0.701465 0.755327 -0.701465 1.75549H0.698535C0.698535 1.52853 0.88253 1.34453 1.1095 1.34453V-0.0554687ZM10.8309 -0.0554687H1.1095V1.34453H10.8309V-0.0554687ZM12.6419 1.75549C12.6419 0.755326 11.8311 -0.0554687 10.8309 -0.0554687V1.34453C11.0579 1.34453 11.2419 1.52853 11.2419 1.75549H12.6419ZM12.6419 3.36941V1.75549H11.2419V3.36941H12.6419ZM14.6747 2.6694H11.9419V4.06941H14.6747V2.6694ZM16.3221 3.72816C16.0275 3.08318 15.3837 2.6694 14.6747 2.6694V4.06941C14.8356 4.06941 14.9817 4.1633 15.0485 4.30967L16.3221 3.72816ZM17.5349 6.38435L16.3221 3.72816L15.0485 4.30967L16.2614 6.96586L17.5349 6.38435ZM17.6985 7.13656C17.6985 6.877 17.6427 6.62046 17.5349 6.38434L16.2614 6.96586C16.2859 7.01944 16.2985 7.07765 16.2985 7.13656H17.6985ZM17.6985 9.30946V7.13656H16.2985V9.30946H17.6985ZM15.8876 11.1204C16.8877 11.1204 17.6985 10.3096 17.6985 9.30946H16.2985C16.2985 9.53643 16.1145 9.72042 15.8876 9.72042V11.1204ZM11.3896 11.1204H15.8876V9.72042H11.3896V11.1204ZM10.6896 10.4196V10.4204H12.0896V10.4196H10.6896ZM1.1095 11.1196H11.3896V9.71964H1.1095V11.1196ZM-0.701465 9.30868C-0.701465 10.3088 0.109334 11.1196 1.1095 11.1196V9.71964C0.88253 9.71964 0.698535 9.53565 0.698535 9.30868H-0.701465ZM-0.701465 1.75549V9.30868H0.698535V1.75549H-0.701465Z" fill="#363A45" mask="url(#path-1-inside-1_13136_14658)"/>
<path d="M14.4302 4.48438H12.5816C12.4589 4.48438 12.3594 4.58385 12.3594 4.70657V6.78567C12.3594 6.90839 12.4589 7.00786 12.5816 7.00786H15.4568C15.6186 7.00786 15.7262 6.84053 15.659 6.69338L14.7417 4.68455C14.686 4.56261 14.5643 4.48438 14.4302 4.48438Z" fill="#00C65E"/>
<path d="M10.8019 9.92748C10.8019 10.7534 11.4715 11.4229 12.2974 11.4229C13.1233 11.4229 13.7928 10.7534 13.7928 9.92748C13.7928 9.10157 13.1233 8.43203 12.2974 8.43203C11.4715 8.43203 10.8019 9.10157 10.8019 9.92748Z" fill="white" stroke="#363A45" stroke-width="0.7"/>
<path d="M12.2982 10.8513C11.7886 10.8513 11.3755 10.4382 11.3755 9.92858C11.3755 9.41898 11.7886 9.00586 12.2982 9.00586C12.8078 9.00586 13.2209 9.41898 13.2209 9.92858C13.2209 10.4382 12.8078 10.8513 12.2982 10.8513Z" fill="#00C65E"/>
<path d="M3.20451 9.92748C3.20451 10.7534 3.87405 11.4229 4.69996 11.4229C5.52587 11.4229 6.19541 10.7534 6.19541 9.92748C6.19541 9.10157 5.52587 8.43203 4.69996 8.43203C3.87405 8.43203 3.20451 9.10157 3.20451 9.92748Z" fill="white" stroke="#363A45" stroke-width="0.7"/>
<path d="M4.70081 10.8513C4.1912 10.8513 3.77809 10.4382 3.77809 9.92858C3.77809 9.41898 4.1912 9.00586 4.70081 9.00586C5.21042 9.00586 5.62354 9.41898 5.62354 9.92858C5.62354 10.4382 5.21042 10.8513 4.70081 10.8513Z" fill="#00C65E"/>
</svg>
