<svg width="20" height="18" viewBox="0 0 20 18" fill="none" xmlns="http://www.w3.org/2000/svg">
<g clip-path="url(#clip0_13136_14701)">
<path d="M9.67741 2.95885L10.0129 3.47702L10.3488 2.95914C11.8642 0.622648 13.9903 0.150976 15.7178 0.814566C17.4706 1.4879 18.8942 3.36016 18.8942 5.88946C18.8942 6.78035 18.4222 7.85507 17.6273 9.01681C16.8406 10.1666 15.776 11.3469 14.6746 12.4382C13.575 13.5276 12.4485 14.5188 11.5439 15.2911C11.2189 15.5686 10.9239 15.8167 10.6683 16.0316C10.5678 16.1162 10.4733 16.1956 10.3856 16.2697C10.2451 16.3882 10.1183 16.4959 10.0109 16.5893C9.8985 16.4941 9.76523 16.3848 9.618 16.2651C9.49135 16.1621 9.35227 16.0497 9.20155 15.9279C8.96518 15.737 8.7002 15.5229 8.40976 15.2856C7.46394 14.5128 6.28254 13.5213 5.12788 12.4314C3.97137 11.3398 2.85216 10.1591 2.02485 9.00909C1.18807 7.84597 0.694189 6.77414 0.694189 5.88946C0.694189 3.35513 2.21372 1.47679 4.08417 0.802061C5.93594 0.134072 8.1708 0.631672 9.67741 2.95885Z" stroke="#363A45" stroke-width="0.8"/>
</g>
<defs>
<clipPath id="clip0_13136_14701">
<rect width="19" height="17" fill="white" transform="translate(0.294189 0.128906)"/>
</clipPath>
</defs>
</svg>
